<svg xmlns="http://www.w3.org/2000/svg" width="596" height="475.521" viewBox="0 0 596 475.521">
  <style>
    path{
      fill: #666;
      stroke: #666;
    }
    svg:hover path{
      fill: #0095eb;
      stroke: #0095eb;
    }
    rect{
      fill: #666;
    }
    svg:hover rect{
      fill: #0095eb;
    }
  </style>
  <path id="Path_3" data-name="Path 3" d="M17.456-417.676v-26.343l103.149,1.9,42.847-.635L206.3-443.7l11.743-.317v26.343q-34.277,0-43.481,6.03-4.761,2.856-6.348,11.108-4.443,19.678-4.443,86.646v73.633l.317,37.134q0,58.081,1.27,71.729,2.856,29.834,14.917,48.083T217.249-53.8q24.915,11.267,63.318,11.267,44.116,0,70.3-15.076t37.292-39.2q11.108-24.121,11.108-91.724v-64.746q0-83.789-.317-102.2-.952-39.99-4.443-48.242a15.049,15.049,0,0,0-7.3-7.617q-10.474-5.4-45.7-6.348v-26.343q57.446,2.222,68.237,2.222,2.856,0,8.569-.317l70.459-1.9v26.343q-29.517,0-37.134,4.761-3.809,2.539-6.189,9.68t-4.6,64.27q-2.222,57.129-2.222,90.137v74.585A439.943,439.943,0,0,1,434.5-115.21q-4.126,30.469-16.663,52.051T382.446-24.121Q359.595-6.665,328.174,2.222t-72.681,8.887q-48.242,0-90.137-13.013-30.469-9.521-49.829-25.549T86.011-63.318Q75.854-83.154,73.633-101.562q-1.587-11.426-1.587-61.572l.317-60.937v-80.615q0-44.434-1.9-79.98-.952-13.965-3.809-20.312-1.587-3.491-7.935-8.252Z" transform="translate(45.044 454.413)" fill="#707070" stroke="#707070" stroke-width="20"/>
  <rect id="Rectangle_4" data-name="Rectangle 4" width="596" height="60" rx="20" transform="translate(0 207.894)"/>
</svg>
