<svg xmlns="http://www.w3.org/2000/svg" width="1157.873" height="727.265" viewBox="0 0 1157.873 727.265">
  <path id="Path_1" data-name="Path 1" d="M141.866,224.336V182.96q48.143-2.018,57.17-8.073T211.271,154.7q4.413-21.7,4.413-130.69V-278.238q0-123.625-1.2-138.258h-57.37q-43.328,0-76.226,3.532-13.239,1.514-15.245,4.037-2.808,3.028-4.814,17.661-5.215,35.322-6.018,79.221h-33.3Q19.9-415.488,19.5-428.607q-1.2-22.2-4.012-47.936l3.611-5.046q18.856,2.523,40.119,3.532,34.5,1.514,132.794,1.514H354.1q101.1,0,135.2-1.514,18.455-1.009,37.311-3.532l4.012,5.046q-3.611,30.78-4.413,53.991-.4,4.037-1.6,110.506H491.3a738.455,738.455,0,0,0-5.215-75.184q-2.407-18.165-5.215-21.7-2.407-2.523-12.838-3.532Q435.135-416.5,389-416.5h-57.37q-1.2,17.661-1.2,138.258V24.013q0,108.992,4.413,131.194,2.808,13.119,12.036,19.427t57.37,8.326v41.377q-77.831-4.541-131.189-4.541Q216.086,219.795,141.866,224.336Zm621.973,0V182.96q48.143-2.018,57.17-8.073T833.244,154.7q4.413-21.7,4.413-130.69V-278.238q0-123.625-1.2-138.258h-57.37q-43.329,0-76.226,3.532-13.239,1.514-15.245,4.037Q684.8-405.9,682.8-391.267q-5.215,35.322-6.018,79.221h-33.3q-1.6-103.441-2.006-116.561-1.2-22.2-4.012-47.936l3.611-5.046q18.856,2.523,40.119,3.532,34.5,1.514,132.794,1.514H976.068q101.1,0,135.2-1.514,18.455-1.009,37.311-3.532l4.012,5.046q-3.611,30.78-4.413,53.991-.4,4.037-1.6,110.506h-33.3a738.463,738.463,0,0,0-5.215-75.184q-2.407-18.165-5.215-21.7-2.407-2.523-12.838-3.532-32.9-4.037-79.034-4.037H953.6q-1.2,17.661-1.2,138.258V24.013q0,108.992,4.413,131.194,2.808,13.119,12.036,19.427t57.37,8.326v41.377q-77.831-4.541-131.189-4.541Q838.058,219.795,763.838,224.336Z" transform="translate(-5.135 492.298)" fill="#707070" stroke="#707070" stroke-linecap="round" stroke-width="20"/>
</svg>
