<svg xmlns="http://www.w3.org/2000/svg" width="712.004" height="471.167" viewBox="0 0 712.004 471.167">
  <path id="Path_1" data-name="Path 1" d="M114.258,0V-26.025q38.086-1.27,45.227-5.078t9.68-12.7q3.491-13.647,3.491-82.2V-316.113q0-77.759-.952-86.963H126.318q-34.277,0-60.3,2.222-10.474.952-12.061,2.539-2.222,1.9-3.809,11.108a313.805,313.805,0,0,0-4.761,49.829H19.043q-1.27-65.063-1.587-73.315-.952-13.965-3.174-30.151l2.856-3.174q14.917,1.587,31.738,2.222,27.295.952,105.054.952H282.153q79.98,0,106.958-.952,14.6-.635,29.517-2.222l3.174,3.174a336.608,336.608,0,0,0-3.491,33.96q-.317,2.539-1.27,69.507H390.7a371,371,0,0,0-4.126-47.29q-1.9-11.426-4.126-13.647-1.9-1.587-10.156-2.222-26.025-2.539-62.524-2.539H264.38q-.952,11.108-.952,86.963V-126q0,68.555,3.491,82.52a18.9,18.9,0,0,0,9.521,12.219q7.3,3.967,45.386,5.237V0Q260.254-2.856,218.042-2.856,172.974-2.856,114.258,0ZM506.645-241.528v-14.282L535.209-273.9a151.634,151.634,0,0,0,13.33-9.521v-42.529q0-22.852-2.539-56.494,30.786-10.156,39.99-13.647,1.587-.635,40.308-18.726l8.252,6.348-3.174,33.008-2.222,36.5L626.3-283.423h10.474q42.212,0,63.794-3.174l-5.4,42.847a42.738,42.738,0,0,1-6.982.635l-31.1-.635H626.3v106.006q0,48.877.952,57.764,1.27,14.917,10.632,23.328t27.136,8.411a120.2,120.2,0,0,0,17.3-.476q6.506-.793,16.663-3.015l5.078,13.013L692.631-27.295Q678.666-13.013,668.192-2.222a101.44,101.44,0,0,1-22.058,7.141A111.562,111.562,0,0,1,626.3,6.665q-36.816,0-57.922-18.884T547.27-59.351l1.27-104.736V-242.48H539.97Q522.514-242.48,506.645-241.528Z" transform="translate(-3.744 454.502)" fill="#707070" stroke="#707070" stroke-linecap="round" stroke-width="20"/>
</svg>
