<svg xmlns="http://www.w3.org/2000/svg" width="600" height="459.665" viewBox="0 0 600 459.665">
  <rect id="Rectangle_6" data-name="Rectangle 6" width="600" height="450" fill="none"/>
  <path id="Path_2" data-name="Path 2" d="M14.6-250.617V-264.15l27.066-17.142A143.691,143.691,0,0,0,54.3-290.314v-40.3q0-21.653-2.406-53.531,29.171-9.624,37.893-12.932,1.5-.6,38.194-17.743L135.8-408.8l-3.007,31.277-2.105,34.585-2.707,52.629H137.9q40,0,60.448-3.007l-5.113,40.6a40.5,40.5,0,0,1-6.616.6l-29.472-.6H127.977v100.446q0,46.313.9,54.734,1.2,14.135,10.075,22.1t25.713,7.97a113.9,113.9,0,0,0,16.39-.451q6.165-.752,15.789-2.857l4.812,12.33L190.831-47.62Q177.6-34.087,167.675-23.862a96.12,96.12,0,0,1-20.9,6.767,105.71,105.71,0,0,1-18.8,1.654q-34.885,0-54.884-17.894t-20-44.659l1.2-99.243v-74.282h-8.12Q29.636-251.519,14.6-250.617Zm260.534,0V-264.15L302.2-281.292a143.693,143.693,0,0,0,12.631-9.022v-40.3q0-21.653-2.406-53.531,29.171-9.624,37.893-12.932,1.5-.6,38.194-17.743l7.819,6.015-3.007,31.277-2.105,34.585-2.707,52.629h9.924q40,0,60.448-3.007l-5.113,40.6a40.5,40.5,0,0,1-6.616.6l-29.472-.6H388.511v100.446q0,46.313.9,54.734,1.2,14.135,10.075,22.1t25.713,7.97a113.9,113.9,0,0,0,16.39-.451q6.165-.752,15.789-2.857l4.812,12.33L451.365-47.62q-13.232,13.533-23.157,23.758a96.119,96.119,0,0,1-20.9,6.767,105.711,105.711,0,0,1-18.8,1.654q-34.885,0-54.884-17.894t-20-44.659l1.2-99.243v-74.282h-8.12Q290.171-251.519,275.134-250.617Z" transform="translate(32 465.106)" fill="#707070" stroke="#707070" stroke-linecap="round" stroke-width="20"/>
</svg>
