<svg xmlns="http://www.w3.org/2000/svg" width="534" height="606.413" xmlns:v="https://vecta.io/nano">
  <style>
    path{
      fill: #666;
      stroke: #666;
    }
    svg:hover path{
      fill: #0095eb;
      stroke: #0095eb;
    }
    rect{
      fill: #666;
    }
    svg:hover rect{
      fill: #0095eb;
    }
  </style>
  <path
    d="M31.5 36.737V10.394l103.149 1.9 42.847-.635 42.848-.946 11.743-.317v26.343q-34.277 0-43.481 6.03-4.761 2.856-6.348 11.108-4.443 19.678-4.443 86.646v73.633l.317 37.134q0 58.081 1.27 71.729 2.856 29.834 14.917 48.083 12.061 18.249 36.974 29.511 24.915 11.267 63.318 11.267 44.116 0 70.3-15.076 26.184-15.076 37.292-39.2 11.108-24.121 11.108-91.724v-64.746q0-83.789-.317-102.2-.952-39.99-4.443-48.242a15.05 15.05 0 0 0-7.3-7.617q-10.474-5.4-45.7-6.348V10.384q57.446 2.222 68.237 2.222 2.856 0 8.569-.317l70.459-1.9v26.343q-29.517 0-37.134 4.761-3.809 2.539-6.189 9.68-2.38 7.141-4.6 64.27-2.222 57.129-2.222 90.137v74.585c-.049 19.75-1.428 39.474-4.127 59.038q-4.126 30.469-16.663 52.051-12.537 21.582-35.391 39.038-22.851 17.456-54.272 26.343-31.421 8.887-72.681 8.887-48.242 0-90.137-13.013-30.469-9.521-49.829-25.549-19.36-16.028-29.516-35.865-10.157-19.836-12.378-38.244-1.587-11.426-1.587-61.572l.317-60.937v-80.615q0-44.434-1.9-79.98-.952-13.965-3.809-20.312-1.587-3.491-7.935-8.252z"
    fill="#707070" stroke="#707070" stroke-width="20"/>
  <rect width="534" height="60" rx="20" y="546.413"/>
</svg>
